<?xml version="1.0" encoding="UTF-8"?>
<!DOCTYPE svg PUBLIC "-//W3C//DTD SVG 1.1//EN" "http://www.w3.org/Graphics/SVG/1.1/DTD/svg11.dtd">
<svg xmlns="http://www.w3.org/2000/svg" version="1.1" width="339px" height="339px" style="shape-rendering:geometricPrecision; text-rendering:geometricPrecision; image-rendering:optimizeQuality; fill-rule:evenodd; clip-rule:evenodd" xmlns:xlink="http://www.w3.org/1999/xlink">
<g><path style="opacity:0.431" fill="#9f9f9f" d="M 164.5,9.5 C 156.917,7.34048 149.25,7.00714 141.5,8.5C 149.324,4.46024 156.99,4.79358 164.5,9.5 Z"/></g>
<g><path style="opacity:0.129" fill="#cccccc" d="M 164.5,9.5 C 166.674,9.74973 168.341,10.7497 169.5,12.5C 167.326,12.2503 165.659,11.2503 164.5,9.5 Z"/></g>
<g><path style="opacity:0.569" fill="#909090" d="M 139.5,9.5 C 135.193,13.4718 130.859,17.4718 126.5,21.5C 129.554,16.1129 133.887,12.1129 139.5,9.5 Z"/></g>
<g><path style="opacity:0.439" fill="#a2a2a2" d="M 175.5,18.5 C 177.262,19.2623 178.262,20.5956 178.5,22.5C 176.738,21.7377 175.738,20.4044 175.5,18.5 Z"/></g>
<g><path style="opacity:0.133" fill="#cdcdcd" d="M 126.5,21.5 C 126.573,23.0269 125.906,24.0269 124.5,24.5C 124.427,22.9731 125.094,21.9731 126.5,21.5 Z"/></g>
<g><path style="opacity:0.102" fill="#d5d5d5" d="M 124.5,24.5 C 124.008,26.8185 123.008,28.8185 121.5,30.5C 121.461,27.911 122.461,25.911 124.5,24.5 Z"/></g>
<g><path style="opacity:0.094" fill="#c3c3c3" d="M 179.5,24.5 C 182.112,26.0522 183.445,28.3855 183.5,31.5C 181.917,29.3374 180.584,27.0041 179.5,24.5 Z"/></g>
<g><path style="opacity:0.561" fill="#a7a7a7" d="M 121.5,30.5 C 121.472,33.9164 120.472,36.9164 118.5,39.5C 118.747,36.1461 119.747,33.1461 121.5,30.5 Z"/></g>
<g><path style="opacity:0.071" fill="#d8d8d8" d="M 184.5,34.5 C 186.104,35.287 186.771,36.6203 186.5,38.5C 185.326,37.4863 184.66,36.153 184.5,34.5 Z"/></g>
<g><path style="opacity:0.182" fill="#b0b1b1" d="M 117.5,44.5 C 117.5,51.5 117.5,58.5 117.5,65.5C 111.167,65.5 104.833,65.5 98.5,65.5C 96.5,65.5 94.5,65.5 92.5,65.5C 100.316,64.5076 108.316,64.1743 116.5,64.5C 116.176,57.6457 116.509,50.979 117.5,44.5 Z"/></g>
<g><path style="opacity:0.239" fill="#b1b1b1" d="M 187.5,43.5 C 188.918,48.6022 189.751,53.9355 190,59.5C 192.041,60.4231 194.208,60.7564 196.5,60.5C 194.052,61.4731 191.385,61.8064 188.5,61.5C 188.299,55.491 187.966,49.491 187.5,43.5 Z"/></g>
<g><path style="opacity:0.624" fill="#8b8a8b" d="M 92.5,65.5 C 94.5,65.5 96.5,65.5 98.5,65.5C 91.3288,66.3578 83.9954,67.0245 76.5,67.5C 75.9347,71.5368 74.6013,75.2034 72.5,78.5C 72.9147,74.1668 74.248,70.1668 76.5,66.5C 81.7698,65.5488 87.1032,65.2154 92.5,65.5 Z"/></g>
<g><path style="opacity:0.38" fill="#929295" d="M 72.5,79.5 C 72.7406,81.8984 72.0739,83.8984 70.5,85.5C 70.595,83.2143 71.2616,81.2143 72.5,79.5 Z"/></g>
<g><path style="opacity:0.455" fill="#a4a2a5" d="M 235.5,78.5 C 237.058,85.9573 238.058,93.624 238.5,101.5C 236.614,94.084 235.614,86.4174 235.5,78.5 Z"/></g>
<g><path style="opacity:0.447" fill="#545153" d="M 68.5,94.5 C 68.5905,97.1522 67.9238,99.4855 66.5,101.5C 66.4095,98.8478 67.0762,96.5145 68.5,94.5 Z"/></g>
<g><path style="opacity:0.349" fill="#727473" d="M 274.5,113.5 C 276.978,112.836 279.645,112.503 282.5,112.5C 285.59,112.522 288.257,113.188 290.5,114.5C 285.26,113.551 279.927,113.218 274.5,113.5 Z"/></g>
<g><path style="opacity:0.49" fill="#8b8a8a" d="M 239.5,112.5 C 240.404,113.209 240.737,114.209 240.5,115.5C 245.473,114.836 250.473,114.503 255.5,114.5C 255.5,114.833 255.5,115.167 255.5,115.5C 250.187,116.098 244.854,116.431 239.5,116.5C 239.5,115.167 239.5,113.833 239.5,112.5 Z"/></g>
<g><path style="opacity:0.486" fill="#787677" d="M 290.5,114.5 C 292.137,119.927 293.137,125.593 293.5,131.5C 291.367,126.156 290.367,120.489 290.5,114.5 Z"/></g>
<g><path style="opacity:0.682" fill="#4c4d4d" d="M 55.5,139.5 C 55.8294,142.228 55.1628,144.562 53.5,146.5C 53.4095,143.848 54.0762,141.515 55.5,139.5 Z"/></g>
<g><path style="opacity:0.573" fill="#676667" d="M 53.5,146.5 C 53.4725,149.916 52.4725,152.916 50.5,155.5C 50.9281,152.215 51.9281,149.215 53.5,146.5 Z"/></g>
<g><path style="opacity:0.584" fill="#7c7b7b" d="M 295.5,145.5 C 296.687,148.946 297.354,152.613 297.5,156.5C 295.783,153.155 295.116,149.489 295.5,145.5 Z"/></g>
<g><path style="opacity:0.451" fill="#989897" d="M 297.5,157.5 C 298.617,161.295 299.283,165.295 299.5,169.5C 297.864,165.79 297.198,161.79 297.5,157.5 Z"/></g>
<g><path style="opacity:0.951" fill="#2b2a2b" d="M 49.5,160.5 C 48.8593,167.814 47.8593,175.147 46.5,182.5C 45.0413,182.433 43.7079,182.766 42.5,183.5C 44.3876,175.596 46.721,167.929 49.5,160.5 Z"/></g>
<g><path style="opacity:0.989" fill="#171215" d="M 164.5,9.5 C 165.659,11.2503 167.326,12.2503 169.5,12.5C 171.833,14.1667 173.833,16.1667 175.5,18.5C 175.738,20.4044 176.738,21.7377 178.5,22.5C 179.338,22.8417 179.672,23.5084 179.5,24.5C 180.584,27.0041 181.917,29.3374 183.5,31.5C 184.404,32.209 184.737,33.209 184.5,34.5C 184.66,36.153 185.326,37.4863 186.5,38.5C 187.301,40.0418 187.634,41.7085 187.5,43.5C 187.966,49.491 188.299,55.491 188.5,61.5C 191.385,61.8064 194.052,61.4731 196.5,60.5C 208.17,59.6388 219.836,59.1388 231.5,59C 232.701,59.9025 233.535,61.0692 234,62.5C 234.567,67.834 235.067,73.1674 235.5,78.5C 235.614,86.4174 236.614,94.084 238.5,101.5C 239.344,105.099 239.677,108.766 239.5,112.5C 239.5,113.833 239.5,115.167 239.5,116.5C 244.854,116.431 250.187,116.098 255.5,115.5C 262.026,115.303 268.359,114.636 274.5,113.5C 279.927,113.218 285.26,113.551 290.5,114.5C 290.367,120.489 291.367,126.156 293.5,131.5C 294.598,136.092 295.265,140.759 295.5,145.5C 295.116,149.489 295.783,153.155 297.5,156.5C 297.5,156.833 297.5,157.167 297.5,157.5C 297.198,161.79 297.864,165.79 299.5,169.5C 300.598,174.092 301.265,178.759 301.5,183.5C 301.4,189.82 302.4,195.82 304.5,201.5C 305.265,204.096 305.599,206.763 305.5,209.5C 305.125,215.532 306.125,221.198 308.5,226.5C 309.823,233.442 310.823,240.442 311.5,247.5C 311.083,251.817 311.75,255.817 313.5,259.5C 315.016,266.08 316.016,272.747 316.5,279.5C 316.198,283.79 316.864,287.79 318.5,291.5C 319.492,296.452 320.158,301.452 320.5,306.5C 320.505,310.534 320.838,314.534 321.5,318.5C 318.946,319.388 316.279,319.721 313.5,319.5C 306.262,319.18 299.262,319.847 292.5,321.5C 276.857,322.832 261.191,323.832 245.5,324.5C 237.299,324.517 229.299,325.183 221.5,326.5C 211.287,326.228 201.287,326.895 191.5,328.5C 183.37,329.869 175.037,330.536 166.5,330.5C 157.494,330.7 148.494,331.034 139.5,331.5C 139.027,330.094 138.027,329.427 136.5,329.5C 136.027,328.094 135.027,327.427 133.5,327.5C 132.738,325.738 131.404,324.738 129.5,324.5C 129.027,323.094 128.027,322.427 126.5,322.5C 123.996,321.416 121.663,320.083 119.5,318.5C 116.691,316.103 113.358,314.77 109.5,314.5C 104.187,314.982 101.854,312.649 102.5,307.5C 91.1438,307.54 79.8104,307.707 68.5,308C 61.5308,302.032 54.8641,295.699 48.5,289C 45.4325,285.8 41.7658,283.634 37.5,282.5C 35.8243,280.166 33.491,279.166 30.5,279.5C 25.7769,278.63 21.4436,276.964 17.5,274.5C 18.3739,271.211 19.0405,267.877 19.5,264.5C 19.9257,260.573 20.9257,256.907 22.5,253.5C 24.2766,250.495 25.2766,247.162 25.5,243.5C 27.1628,241.562 27.8294,239.228 27.5,236.5C 29.2766,233.495 30.2766,230.162 30.5,226.5C 33.3867,214.607 36.72,202.94 40.5,191.5C 41.9238,189.485 42.5905,187.152 42.5,184.5C 42.5,184.167 42.5,183.833 42.5,183.5C 43.7079,182.766 45.0413,182.433 46.5,182.5C 47.8593,175.147 48.8593,167.814 49.5,160.5C 49.366,158.708 49.6993,157.042 50.5,155.5C 52.4725,152.916 53.4725,149.916 53.5,146.5C 55.1628,144.562 55.8294,142.228 55.5,139.5C 58.5646,126.561 62.2312,113.894 66.5,101.5C 67.9238,99.4855 68.5905,97.1522 68.5,94.5C 68.6997,91.3704 69.3664,88.3704 70.5,85.5C 72.0739,83.8984 72.7406,81.8984 72.5,79.5C 72.5,79.1667 72.5,78.8333 72.5,78.5C 74.6013,75.2034 75.9347,71.5368 76.5,67.5C 83.9954,67.0245 91.3288,66.3578 98.5,65.5C 104.833,65.5 111.167,65.5 117.5,65.5C 117.5,58.5 117.5,51.5 117.5,44.5C 117.216,42.5853 117.549,40.9187 118.5,39.5C 120.472,36.9164 121.472,33.9164 121.5,30.5C 123.008,28.8185 124.008,26.8185 124.5,24.5C 125.906,24.0269 126.573,23.0269 126.5,21.5C 130.859,17.4718 135.193,13.4718 139.5,9.5C 139.842,8.66175 140.508,8.32842 141.5,8.5C 149.25,7.00714 156.917,7.34048 164.5,9.5 Z M 160.5,14.5 C 161.514,15.6737 162.847,16.3404 164.5,16.5C 165.262,18.2624 166.596,19.2624 168.5,19.5C 169.08,21.7488 170.413,23.4154 172.5,24.5C 172.5,25.1667 172.833,25.5 173.5,25.5C 173.75,27.674 174.75,29.3406 176.5,30.5C 176.992,32.8185 177.992,34.8185 179.5,36.5C 180.057,41.0516 181.057,45.3849 182.5,49.5C 182.5,49.8333 182.5,50.1667 182.5,50.5C 182.5,53.8333 182.5,57.1667 182.5,60.5C 180.901,60.2322 179.568,60.5655 178.5,61.5C 161.812,61.7011 145.145,62.3678 128.5,63.5C 126.833,63.5 125.167,63.5 123.5,63.5C 122.447,51.7226 124.113,40.3893 128.5,29.5C 130.192,27.7952 131.525,25.7952 132.5,23.5C 134.262,22.7377 135.262,21.4044 135.5,19.5C 137.404,19.2624 138.738,18.2624 139.5,16.5C 141.368,15.7368 143.035,14.7368 144.5,13.5C 149.947,11.9892 155.28,12.3226 160.5,14.5 Z"/></g>
<g><path style="opacity:1" fill="#11030e" d="M 167.5,126.5 C 164.615,126.194 161.948,126.527 159.5,127.5C 158.5,127.5 157.5,127.5 156.5,127.5C 152.629,127.185 148.962,127.518 145.5,128.5C 144.981,144.599 143.981,160.766 142.5,177C 143.497,225.095 143.831,273.261 143.5,321.5C 142.799,318.437 142.132,315.27 141.5,312C 142.645,305.248 142.811,298.414 142,291.5C 140.175,300.923 140.008,310.423 141.5,320C 141.613,321.699 140.947,322.866 139.5,323.5C 139.5,306.167 139.5,288.833 139.5,271.5C 139.5,243.5 139.5,215.5 139.5,187.5C 140.659,176.341 140.826,165.008 140,153.5C 139.187,155.436 138.687,157.436 138.5,159.5C 136.175,160.655 135.008,162.655 135,165.5C 134.502,162.183 134.335,158.85 134.5,155.5C 135.837,144.98 138.004,134.647 141,124.5C 141.75,123.874 142.584,123.374 143.5,123C 148.823,122.501 154.156,122.334 159.5,122.5C 170.227,122.309 180.893,122.309 191.5,122.5C 191.291,123.086 190.957,123.586 190.5,124C 184.167,124.333 177.833,124.667 171.5,125C 169.942,125.21 168.609,125.71 167.5,126.5 Z"/></g>
<g><path style="opacity:1" fill="#694a5a" d="M 139.5,187.5 C 139.827,177.985 139.494,168.652 138.5,159.5C 138.687,157.436 139.187,155.436 140,153.5C 140.826,165.008 140.659,176.341 139.5,187.5 Z"/></g>
<g><path style="opacity:1" fill="#84339b" d="M 67.5,239.5 C 66.7229,252.468 66.2229,265.468 66,278.5C 65.4811,283.238 64.6478,287.905 63.5,292.5C 62.448,292.649 61.448,292.483 60.5,292C 57.2652,287.421 53.5985,283.088 49.5,279C 46.5219,278.304 43.5219,277.804 40.5,277.5C 39.1266,277.657 37.7932,277.49 36.5,277C 32.6593,275.31 28.9926,273.477 25.5,271.5C 26.75,263.842 28.0834,256.175 29.5,248.5C 30.4959,248.586 31.3292,248.252 32,247.5C 32.7599,243.181 33.4265,238.848 34,234.5C 36.2493,227.646 38.916,220.979 42,214.5C 43.945,204.838 45.7783,195.172 47.5,185.5C 52.7199,177.756 55.3866,169.09 55.5,159.5C 56.1174,159.389 56.6174,159.056 57,158.5C 60.2706,149.084 62.4373,139.417 63.5,129.5C 66.2166,125.149 68.3832,120.482 70,115.5C 70.4974,112.854 70.6641,110.187 70.5,107.5C 71.1174,107.389 71.6174,107.056 72,106.5C 72.1836,119.729 71.3503,132.896 69.5,146C 70.9134,154.39 70.5801,162.723 68.5,171C 69.549,178.814 69.7157,186.647 69,194.5C 68.958,199.122 68.1247,202.122 66.5,203.5C 66.5594,215.461 66.8928,227.461 67.5,239.5 Z"/></g>
<g><path style="opacity:1" fill="#6a3579" d="M 55.5,159.5 C 55.3866,169.09 52.7199,177.756 47.5,185.5C 49.4369,178.229 51.2702,170.896 53,163.5C 53.9344,162.142 54.7677,160.808 55.5,159.5 Z"/></g>
<g><path style="opacity:1" fill="#e299bd" d="M 310.5,276.5 C 311.222,286.162 311.889,295.829 312.5,305.5C 310.29,292.604 308.456,279.604 307,266.5C 306.683,264.699 306.016,264.366 305,265.5C 304.928,261.469 304.094,257.636 302.5,254C 302.833,253 303.167,252 303.5,251C 302.724,244.537 302.224,238.037 302,231.5C 300.223,227.732 299.056,223.732 298.5,219.5C 296.377,206.677 294.877,193.677 294,180.5C 292.12,174.547 290.454,168.547 289,162.5C 288.296,148.327 286.463,134.327 283.5,120.5C 261.85,121.953 240.184,123.286 218.5,124.5C 198.9,126.281 179.233,127.281 159.5,127.5C 161.948,126.527 164.615,126.194 167.5,126.5C 196.359,124.722 225.026,122.389 253.5,119.5C 264.405,118.727 275.238,118.727 286,119.5C 294.75,171.747 302.916,224.08 310.5,276.5 Z"/></g>
<g><path style="opacity:1" fill="#f49ec8" d="M 218.5,124.5 C 218.586,125.496 218.252,126.329 217.5,127C 213.16,127.417 208.827,127.251 204.5,126.5C 200.157,126.918 195.824,127.418 191.5,128C 191,128.5 190.5,129 190,129.5C 179.894,128.182 169.728,128.182 159.5,129.5C 158.079,132.307 156.079,132.974 153.5,131.5C 151.726,131.887 150.059,132.553 148.5,133.5C 147.098,160.527 147.432,187.527 149.5,214.5C 149.117,222.07 148.117,229.403 146.5,236.5C 146.5,200.5 146.5,164.5 146.5,128.5C 150.042,128.813 153.375,128.479 156.5,127.5C 157.5,127.5 158.5,127.5 159.5,127.5C 179.233,127.281 198.9,126.281 218.5,124.5 Z"/></g>
<g><path style="opacity:1" fill="#633271" d="M 63.5,129.5 C 62.4373,139.417 60.2706,149.084 57,158.5C 56.6174,159.056 56.1174,159.389 55.5,159.5C 56.8208,154.942 57.6542,150.276 58,145.5C 59.7865,140.109 61.6198,134.776 63.5,129.5 Z"/></g>
<g><path style="opacity:1" fill="#b377c1" d="M 82.5,79.5 C 82.5788,88.6741 82.9122,97.8408 83.5,107C 83.6549,112.474 82.9882,117.807 81.5,123C 81.6032,124.561 81.9366,126.061 82.5,127.5C 81.8441,148.465 81.1774,169.465 80.5,190.5C 79.8182,189.757 79.1515,189.091 78.5,188.5C 79.7507,172.164 79.7507,155.831 78.5,139.5C 78.1945,130.083 78.5279,120.75 79.5,111.5C 80.5,100.833 81.5,90.1667 82.5,79.5 Z"/></g>
<g><path style="opacity:1" fill="#623471" d="M 73.5,115.5 C 73.8256,111.116 73.4922,106.783 72.5,102.5C 71.438,104.022 70.7713,105.688 70.5,107.5C 70.6641,110.187 70.4974,112.854 70,115.5C 68.3832,120.482 66.2166,125.149 63.5,129.5C 66.1927,119.821 68.8594,110.154 71.5,100.5C 72.1814,98.8415 73.0147,97.1749 74,95.5C 74.8206,102.346 74.654,109.013 73.5,115.5 Z"/></g>
<g><path style="opacity:1" fill="#743583" d="M 73.5,115.5 C 73.5592,136.862 72.8926,158.195 71.5,179.5C 71.8055,188.917 71.4721,198.25 70.5,207.5C 69.2346,218.145 68.2346,228.812 67.5,239.5C 66.8928,227.461 66.5594,215.461 66.5,203.5C 68.1247,202.122 68.958,199.122 69,194.5C 69.7157,186.647 69.549,178.814 68.5,171C 70.5801,162.723 70.9134,154.39 69.5,146C 71.3503,132.896 72.1836,119.729 72,106.5C 71.6174,107.056 71.1174,107.389 70.5,107.5C 70.7713,105.688 71.438,104.022 72.5,102.5C 73.4922,106.783 73.8256,111.116 73.5,115.5 Z"/></g>
<g><path style="opacity:1" fill="#fe98ca" d="M 312.5,305.5 C 312.993,307.806 313.326,310.139 313.5,312.5C 303.605,313.601 293.772,313.601 284,312.5C 280.006,313.972 275.839,314.639 271.5,314.5C 266.781,314.26 262.281,313.926 258,313.5C 253.769,315.403 249.269,316.403 244.5,316.5C 239.333,315.116 234.666,315.616 230.5,318C 202.894,320.64 175.227,322.473 147.5,323.5C 146.532,294.525 146.199,265.525 146.5,236.5C 148.117,229.403 149.117,222.07 149.5,214.5C 147.432,187.527 147.098,160.527 148.5,133.5C 150.059,132.553 151.726,131.887 153.5,131.5C 156.079,132.974 158.079,132.307 159.5,129.5C 169.728,128.182 179.894,128.182 190,129.5C 190.5,129 191,128.5 191.5,128C 195.824,127.418 200.157,126.918 204.5,126.5C 208.827,127.251 213.16,127.417 217.5,127C 218.252,126.329 218.586,125.496 218.5,124.5C 240.184,123.286 261.85,121.953 283.5,120.5C 286.463,134.327 288.296,148.327 289,162.5C 290.454,168.547 292.12,174.547 294,180.5C 294.877,193.677 296.377,206.677 298.5,219.5C 299.056,223.732 300.223,227.732 302,231.5C 302.224,238.037 302.724,244.537 303.5,251C 303.167,252 302.833,253 302.5,254C 304.094,257.636 304.928,261.469 305,265.5C 306.016,264.366 306.683,264.699 307,266.5C 308.456,279.604 310.29,292.604 312.5,305.5 Z"/></g>
<g><path style="opacity:1" fill="#e99bc1" d="M 236.5,211.5 C 246.854,201.79 252.687,189.79 254,175.5C 254.69,166.984 254.523,158.484 253.5,150C 253.191,147.336 254.025,145.17 256,143.5C 256.832,138.48 254.665,135.48 249.5,134.5C 243.473,137.676 242.973,141.676 248,146.5C 250.567,161.025 249.9,175.359 246,189.5C 244.726,192.391 243.226,195.058 241.5,197.5C 247.391,182.375 249.058,166.709 246.5,150.5C 246.167,149.5 245.833,148.5 245.5,147.5C 243.419,145.712 241.419,143.879 239.5,142C 240.424,141.15 240.424,140.15 239.5,139C 239.735,138.127 240.069,137.293 240.5,136.5C 242.482,135.784 244.149,134.617 245.5,133C 249.493,132.83 253.493,132.996 257.5,133.5C 258.389,135.91 259.055,138.41 259.5,141C 259.646,143.034 258.98,144.701 257.5,146C 258.603,147.68 258.27,149.18 256.5,150.5C 256.244,156.907 256.578,163.407 257.5,170C 256.49,176.76 255.657,183.593 255,190.5C 253.488,191.257 252.154,192.257 251,193.5C 249.078,197.602 247.745,201.935 247,206.5C 245.266,207.249 243.433,207.749 241.5,208C 240.211,209.802 238.544,210.969 236.5,211.5 Z"/></g>
<g><path style="opacity:1" fill="#1e0e18" d="M 230.5,117.5 C 229.737,118.268 228.737,118.768 227.5,119C 220.476,119.169 213.476,119.669 206.5,120.5C 208.5,120.833 210.5,121.167 212.5,121.5C 226.143,120.293 239.809,119.626 253.5,119.5C 225.026,122.389 196.359,124.722 167.5,126.5C 168.609,125.71 169.942,125.21 171.5,125C 177.833,124.667 184.167,124.333 190.5,124C 190.957,123.586 191.291,123.086 191.5,122.5C 180.893,122.309 170.227,122.309 159.5,122.5C 182.992,120.461 206.659,118.794 230.5,117.5 Z"/></g>
<g><path style="opacity:1" fill="#a877b4" d="M 230.5,84.5 C 231.461,86.2646 231.795,88.2646 231.5,90.5C 231.444,95.7312 232.111,100.731 233.5,105.5C 234.36,109.434 234.693,113.434 234.5,117.5C 233.167,117.5 231.833,117.5 230.5,117.5C 206.659,118.794 182.992,120.461 159.5,122.5C 154.156,122.334 148.823,122.501 143.5,123C 142.584,123.374 141.75,123.874 141,124.5C 138.004,134.647 135.837,144.98 134.5,155.5C 132.833,162.167 131.167,168.833 129.5,175.5C 131.485,163.215 133.319,150.881 135,138.5C 136.889,134.436 137.889,130.103 138,125.5C 139.529,124.271 140.696,122.771 141.5,121C 171.155,119.104 200.821,117.437 230.5,116C 231.684,114.82 232.351,113.32 232.5,111.5C 230.962,102.564 230.296,93.5643 230.5,84.5 Z"/></g>
<g><path style="opacity:0.541" fill="#535454" d="M 274.5,113.5 C 268.359,114.636 262.026,115.303 255.5,115.5C 255.5,115.167 255.5,114.833 255.5,114.5C 261.815,113.89 268.149,113.557 274.5,113.5 Z"/></g>
<g><path style="opacity:1" fill="#1a0a1e" d="M 80.5,71.5 C 80.0456,84.8296 79.7123,98.1629 79.5,111.5C 78.5279,120.75 78.1945,130.083 78.5,139.5C 77.8333,146.167 77.1667,152.833 76.5,159.5C 77.0747,138.146 77.5747,116.813 78,95.5C 76.0101,102.34 75.0101,109.34 75,116.5C 74.6667,133.167 74.3333,149.833 74,166.5C 73.1259,170.965 72.2926,175.298 71.5,179.5C 72.8926,158.195 73.5592,136.862 73.5,115.5C 74.654,109.013 74.8206,102.346 74,95.5C 73.0147,97.1749 72.1814,98.8415 71.5,100.5C 71.4129,97.2613 72.0795,94.2613 73.5,91.5C 75.3904,91.7035 76.8904,91.0368 78,89.5C 78.9755,83.3798 79.8089,77.3798 80.5,71.5 Z"/></g>
<g><path style="opacity:1" fill="#5e3d62" d="M 231.5,90.5 C 233.031,95.2502 233.698,100.25 233.5,105.5C 232.111,100.731 231.444,95.7312 231.5,90.5 Z"/></g>
<g><path style="opacity:1" fill="#a475af" d="M 210.5,65.5 C 209.737,66.2679 208.737,66.7679 207.5,67C 202.167,67.3333 196.833,67.6667 191.5,68C 190.62,69.3561 190.286,70.8561 190.5,72.5C 191.833,72.5 193.167,72.5 194.5,72.5C 196.291,77.957 194.958,82.457 190.5,86C 185.251,87.3755 181.584,85.5422 179.5,80.5C 180.518,76.4774 181.518,72.4774 182.5,68.5C 174.833,68.5 167.167,68.5 159.5,68.5C 160.209,67.596 161.209,67.2627 162.5,67.5C 169.5,67.5 176.5,67.5 183.5,67.5C 183.5,69.5 183.5,71.5 183.5,73.5C 179.469,80.5807 181.469,84.0807 189.5,84C 190.333,83.1667 191.167,82.3333 192,81.5C 190.557,76.4242 189.723,71.0909 189.5,65.5C 196.5,65.5 203.5,65.5 210.5,65.5 Z"/></g>
<g><path style="opacity:1" fill="#a776b2" d="M 159.5,68.5 C 147.948,69.6193 136.281,70.9526 124.5,72.5C 126.029,75.0211 127.029,77.8544 127.5,81C 128.215,85.1091 126.548,87.2757 122.5,87.5C 127.603,83.8325 127.769,79.8325 123,75.5C 122.51,74.2068 122.343,72.8734 122.5,71.5C 125.701,69.7397 129.367,68.9064 133.5,69C 142.16,68.5002 150.827,68.3336 159.5,68.5 Z"/></g>
<g><path style="opacity:1" fill="#aa7db6" d="M 96.5,71.5 C 100.634,70.5151 104.968,70.1818 109.5,70.5C 112.167,70.5 114.833,70.5 117.5,70.5C 117.5,72.5 117.5,74.5 117.5,76.5C 116.833,76.5 116.5,76.8333 116.5,77.5C 113.779,80.6313 114.113,83.6313 117.5,86.5C 119.071,87.3094 120.738,87.6427 122.5,87.5C 116.502,89.3146 113.502,86.9813 113.5,80.5C 113.729,78.1756 114.396,76.0089 115.5,74C 115.167,73.5 114.833,73 114.5,72.5C 108.561,71.5429 102.561,71.2096 96.5,71.5 Z"/></g>
<g><path style="opacity:1" fill="#a377af" d="M 80.5,71.5 C 84.1667,71.5 87.8333,71.5 91.5,71.5C 88.7131,72.4767 85.7131,72.81 82.5,72.5C 82.5,74.8333 82.5,77.1667 82.5,79.5C 81.5,90.1667 80.5,100.833 79.5,111.5C 79.7123,98.1629 80.0456,84.8296 80.5,71.5 Z"/></g>
<g><path style="opacity:1" fill="#b976ca" d="M 230.5,84.5 C 230.296,93.5643 230.962,102.564 232.5,111.5C 232.351,113.32 231.684,114.82 230.5,116C 200.821,117.437 171.155,119.104 141.5,121C 140.696,122.771 139.529,124.271 138,125.5C 137.889,130.103 136.889,134.436 135,138.5C 133.319,150.881 131.485,163.215 129.5,175.5C 127.971,180.223 125.637,184.556 122.5,188.5C 123.542,192.799 123.709,197.132 123,201.5C 120.06,219.409 116.394,237.075 112,254.5C 111.586,254.957 111.086,255.291 110.5,255.5C 109.804,258.556 108.97,261.556 108,264.5C 107.339,276.296 105.839,287.963 103.5,299.5C 94.8269,299.666 86.1603,299.5 77.5,299C 76.4267,297.75 76.4267,296.416 77.5,295C 77.3865,293.72 76.7199,292.887 75.5,292.5C 75.1667,287.333 74.8333,282.167 74.5,277C 75.3819,247.32 76.7152,217.82 78.5,188.5C 79.1515,189.091 79.8182,189.757 80.5,190.5C 81.1774,169.465 81.8441,148.465 82.5,127.5C 81.9366,126.061 81.6032,124.561 81.5,123C 82.9882,117.807 83.6549,112.474 83.5,107C 82.9122,97.8408 82.5788,88.6741 82.5,79.5C 82.5,77.1667 82.5,74.8333 82.5,72.5C 85.7131,72.81 88.7131,72.4767 91.5,71.5C 93.1667,71.5 94.8333,71.5 96.5,71.5C 102.561,71.2096 108.561,71.5429 114.5,72.5C 114.833,73 115.167,73.5 115.5,74C 114.396,76.0089 113.729,78.1756 113.5,80.5C 113.502,86.9813 116.502,89.3146 122.5,87.5C 126.548,87.2757 128.215,85.1091 127.5,81C 127.029,77.8544 126.029,75.0211 124.5,72.5C 136.281,70.9526 147.948,69.6193 159.5,68.5C 167.167,68.5 174.833,68.5 182.5,68.5C 181.518,72.4774 180.518,76.4774 179.5,80.5C 181.584,85.5422 185.251,87.3755 190.5,86C 194.958,82.457 196.291,77.957 194.5,72.5C 193.167,72.5 191.833,72.5 190.5,72.5C 190.286,70.8561 190.62,69.3561 191.5,68C 196.833,67.6667 202.167,67.3333 207.5,67C 208.737,66.7679 209.737,66.2679 210.5,65.5C 216.484,64.9258 222.484,64.5925 228.5,64.5C 229.002,71.1847 229.669,77.8513 230.5,84.5 Z"/></g>
<g><path style="opacity:1" fill="#1b0d21" d="M 122.5,71.5 C 122.343,72.8734 122.51,74.2068 123,75.5C 127.769,79.8325 127.603,83.8325 122.5,87.5C 120.738,87.6427 119.071,87.3094 117.5,86.5C 114.113,83.6313 113.779,80.6313 116.5,77.5C 116.093,83.0985 118.426,85.4318 123.5,84.5C 123.64,80.8358 122.973,77.3358 121.5,74C 121.528,72.9302 121.861,72.0968 122.5,71.5 Z"/></g>
<g><path style="opacity:1" fill="#4c3054" d="M 109.5,70.5 C 112.287,69.5233 115.287,69.19 118.5,69.5C 118.802,72.0593 118.468,74.3926 117.5,76.5C 117.5,74.5 117.5,72.5 117.5,70.5C 114.833,70.5 112.167,70.5 109.5,70.5 Z"/></g>
<g><path style="opacity:1" fill="#5c3d63" d="M 162.5,67.5 C 169.648,66.5084 176.981,66.175 184.5,66.5C 184.802,69.0593 184.468,71.3926 183.5,73.5C 183.5,71.5 183.5,69.5 183.5,67.5C 176.5,67.5 169.5,67.5 162.5,67.5 Z"/></g>
<g><path style="opacity:0.416" fill="#888888" d="M 178.5,61.5 C 180.167,61.5 181.833,61.5 183.5,61.5C 165.333,62.7154 146.999,63.7154 128.5,64.5C 128.5,64.1667 128.5,63.8333 128.5,63.5C 145.145,62.3678 161.812,61.7011 178.5,61.5 Z"/></g>
<g><path style="opacity:0.065" fill="#cacaca" d="M 128.5,29.5 C 124.113,40.3893 122.447,51.7226 123.5,63.5C 125.167,63.5 126.833,63.5 128.5,63.5C 128.5,63.8333 128.5,64.1667 128.5,64.5C 126.5,64.5 124.5,64.5 122.5,64.5C 122.334,57.4921 122.5,50.4921 123,43.5C 123.976,38.3884 125.809,33.7217 128.5,29.5 Z"/></g>
<g><path style="opacity:0.047" fill="#dbdbdb" d="M 182.5,50.5 C 183.482,53.9619 183.815,57.6286 183.5,61.5C 181.833,61.5 180.167,61.5 178.5,61.5C 179.568,60.5655 180.901,60.2322 182.5,60.5C 182.5,57.1667 182.5,53.8333 182.5,50.5 Z"/></g>
<g><path style="opacity:0.008" fill="#c7c7c7" d="M 179.5,36.5 C 181.575,40.4742 182.575,44.8075 182.5,49.5C 181.057,45.3849 180.057,41.0516 179.5,36.5 Z"/></g>
<g><path style="opacity:0.094" fill="#cacaca" d="M 173.5,25.5 C 175.25,26.6594 176.25,28.326 176.5,30.5C 174.75,29.3406 173.75,27.674 173.5,25.5 Z"/></g>
<g><path style="opacity:0.004" fill="#d1d1d1" d="M 168.5,19.5 C 170.587,20.5846 171.92,22.2512 172.5,24.5C 170.413,23.4154 169.08,21.7488 168.5,19.5 Z"/></g>
<g><path style="opacity:0.012" fill="#cacaca" d="M 135.5,19.5 C 135.262,21.4044 134.262,22.7377 132.5,23.5C 132.738,21.5956 133.738,20.2623 135.5,19.5 Z"/></g>
<g><path style="opacity:0.18" fill="#b1b1b1" d="M 164.5,16.5 C 166.404,16.7376 167.738,17.7376 168.5,19.5C 166.596,19.2624 165.262,18.2624 164.5,16.5 Z"/></g>
<g><path style="opacity:0.027" fill="#c4c4c4" d="M 139.5,16.5 C 138.738,18.2624 137.404,19.2624 135.5,19.5C 136.262,17.7376 137.596,16.7376 139.5,16.5 Z"/></g>
<g><path style="opacity:0.202" fill="#999999" d="M 160.5,14.5 C 155.28,12.3226 149.947,11.9892 144.5,13.5C 149.273,11.0332 154.273,10.8665 159.5,13C 160.056,13.3826 160.389,13.8826 160.5,14.5 Z"/></g>
<g><path style="opacity:1" fill="#e096ba" d="M 188.5,141.5 C 180.618,138.375 177.618,141.042 179.5,149.5C 180.242,150.287 181.075,150.953 182,151.5C 181.309,169.058 185.309,185.392 194,200.5C 201.61,211.555 212.11,216.555 225.5,215.5C 217.642,217.044 209.808,216.377 202,213.5C 199.828,211.995 197.995,210.161 196.5,208C 195.167,207.667 193.833,207.333 192.5,207C 193.574,206.261 194.241,205.261 194.5,204C 192.94,201.439 190.773,199.606 188,198.5C 186.456,194.407 184.789,190.407 183,186.5C 182.458,176.825 181.791,167.158 181,157.5C 178.649,154.131 176.815,150.464 175.5,146.5C 175.712,140.173 179.046,137.506 185.5,138.5C 187.167,138.833 188.833,139.167 190.5,139.5C 189.757,140.182 189.091,140.849 188.5,141.5 Z"/></g>
<g><path style="opacity:0.525" fill="#60625f" d="M 42.5,184.5 C 42.5905,187.152 41.9238,189.485 40.5,191.5C 40.4095,188.848 41.0762,186.515 42.5,184.5 Z"/></g>
<g><path style="opacity:0.459" fill="#8c8b88" d="M 301.5,183.5 C 302.911,189.301 303.911,195.301 304.5,201.5C 302.4,195.82 301.4,189.82 301.5,183.5 Z"/></g>
<g><path style="opacity:1" fill="#2d1420" d="M 145.5,128.5 C 144.763,194.497 144.43,260.497 144.5,326.5C 143.549,325.081 143.216,323.415 143.5,321.5C 143.831,273.261 143.497,225.095 142.5,177C 143.981,160.766 144.981,144.599 145.5,128.5 Z"/></g>
<g><path style="opacity:1" fill="#190811" d="M 236.5,211.5 C 232.942,213.112 229.275,214.445 225.5,215.5C 212.11,216.555 201.61,211.555 194,200.5C 185.309,185.392 181.309,169.058 182,151.5C 181.075,150.953 180.242,150.287 179.5,149.5C 177.618,141.042 180.618,138.375 188.5,141.5C 190.015,144.737 189.681,147.737 187.5,150.5C 186.347,156.653 186.18,162.986 187,169.5C 187.098,172.522 187.932,175.189 189.5,177.5C 192.271,192.215 200.271,203.049 213.5,210C 218.02,210.814 222.354,210.647 226.5,209.5C 233.255,207.751 238.255,203.751 241.5,197.5C 243.226,195.058 244.726,192.391 246,189.5C 249.9,175.359 250.567,161.025 248,146.5C 242.973,141.676 243.473,137.676 249.5,134.5C 254.665,135.48 256.832,138.48 256,143.5C 254.025,145.17 253.191,147.336 253.5,150C 254.523,158.484 254.69,166.984 254,175.5C 252.687,189.79 246.854,201.79 236.5,211.5 Z"/></g>
<g><path style="opacity:1" fill="#ea9ec3" d="M 188.5,141.5 C 190.95,141.874 191.95,143.374 191.5,146C 187.403,161.251 189.403,175.584 197.5,189C 197.167,189.333 196.833,189.667 196.5,190C 198.709,191.873 200.542,194.04 202,196.5C 203.584,197.861 205.418,198.528 207.5,198.5C 207.5,199.5 207.5,200.5 207.5,201.5C 208.552,201.351 209.552,201.517 210.5,202C 212.46,204.106 214.294,206.273 216,208.5C 219.441,209.382 222.941,209.716 226.5,209.5C 222.354,210.647 218.02,210.814 213.5,210C 200.271,203.049 192.271,192.215 189.5,177.5C 188.123,168.56 187.457,159.56 187.5,150.5C 189.681,147.737 190.015,144.737 188.5,141.5 Z"/></g>
<g><path style="opacity:1" fill="#341824" d="M 187.5,150.5 C 187.457,159.56 188.123,168.56 189.5,177.5C 187.932,175.189 187.098,172.522 187,169.5C 186.18,162.986 186.347,156.653 187.5,150.5 Z"/></g>
<g><path style="opacity:1" fill="#c871a9" d="M 127.5,316.5 C 124.286,314.536 120.953,312.869 117.5,311.5C 116.766,310.292 116.433,308.959 116.5,307.5C 113.477,307.895 112.477,306.895 113.5,304.5C 113.154,303.304 112.654,303.304 112,304.5C 111.135,298.821 112.301,293.654 115.5,289C 114.398,286.599 114.231,284.099 115,281.5C 116.813,275.725 118.813,270.058 121,264.5C 121.118,267.371 121.784,270.038 123,272.5C 123.565,266.752 123.065,261.085 121.5,255.5C 122.714,249.219 123.38,242.886 123.5,236.5C 123.5,236.167 123.5,235.833 123.5,235.5C 126.643,224.296 129.477,212.962 132,201.5C 132.498,198.183 132.665,194.85 132.5,191.5C 132.5,190.833 132.5,190.167 132.5,189.5C 133.141,187.958 134.141,186.624 135.5,185.5C 136.071,181.69 136.904,178.024 138,174.5C 138.936,221.857 138.269,269.191 136,316.5C 133.204,317.679 130.371,317.679 127.5,316.5 Z"/></g>
<g><path style="opacity:1" fill="#08000c" d="M 76.5,159.5 C 76.5,165.167 76.5,170.833 76.5,176.5C 75.4565,189.265 74.1232,202.098 72.5,215C 73.4825,223.081 73.8158,231.248 73.5,239.5C 72.8659,255.492 72.5325,271.492 72.5,287.5C 71.5166,291.298 71.1832,295.298 71.5,299.5C 70.7321,298.737 70.2321,297.737 70,296.5C 69.3292,297.252 68.4959,297.586 67.5,297.5C 68.6248,267.505 69.6248,237.505 70.5,207.5C 71.4721,198.25 71.8055,188.917 71.5,179.5C 72.2926,175.298 73.1259,170.965 74,166.5C 74.3333,149.833 74.6667,133.167 75,116.5C 75.0101,109.34 76.0101,102.34 78,95.5C 77.5747,116.813 77.0747,138.146 76.5,159.5 Z"/></g>
<g><path style="opacity:1" fill="#170816" d="M 134.5,155.5 C 134.335,158.85 134.502,162.183 135,165.5C 135.008,162.655 136.175,160.655 138.5,159.5C 136.183,169.434 134.183,179.434 132.5,189.5C 132.5,190.167 132.5,190.833 132.5,191.5C 128.305,205.797 125.305,220.464 123.5,235.5C 123.5,235.833 123.5,236.167 123.5,236.5C 118.293,258.788 113.293,281.121 108.5,303.5C 107.817,301.824 106.483,301.157 104.5,301.5C 113.047,259.554 121.38,217.554 129.5,175.5C 131.167,168.833 132.833,162.167 134.5,155.5 Z"/></g>
<g><path style="opacity:1" fill="#1a0b1f" d="M 76.5,176.5 C 76.1112,197.684 75.1112,218.684 73.5,239.5C 73.8158,231.248 73.4825,223.081 72.5,215C 74.1232,202.098 75.4565,189.265 76.5,176.5 Z"/></g>
<g><path style="opacity:1" fill="#b9769e" d="M 138.5,159.5 C 139.494,168.652 139.827,177.985 139.5,187.5C 139.5,215.5 139.5,243.5 139.5,271.5C 138.833,288.833 138.167,306.167 137.5,323.5C 133.779,321.646 130.446,319.313 127.5,316.5C 130.371,317.679 133.204,317.679 136,316.5C 138.269,269.191 138.936,221.857 138,174.5C 136.904,178.024 136.071,181.69 135.5,185.5C 134.141,186.624 133.141,187.958 132.5,189.5C 134.183,179.434 136.183,169.434 138.5,159.5 Z"/></g>
<g><path style="opacity:1" fill="#673377" d="M 47.5,185.5 C 45.7783,195.172 43.945,204.838 42,214.5C 38.916,220.979 36.2493,227.646 34,234.5C 33.4265,238.848 32.7599,243.181 32,247.5C 31.3292,248.252 30.4959,248.586 29.5,248.5C 34.5508,227.13 40.5508,206.13 47.5,185.5 Z"/></g>
<g><path style="opacity:0.373" fill="#8d8b8b" d="M 305.5,209.5 C 307.137,214.927 308.137,220.593 308.5,226.5C 306.125,221.198 305.125,215.532 305.5,209.5 Z"/></g>
<g><path style="opacity:1" fill="#ab6e92" d="M 132.5,191.5 C 132.665,194.85 132.498,198.183 132,201.5C 129.477,212.962 126.643,224.296 123.5,235.5C 125.305,220.464 128.305,205.797 132.5,191.5 Z"/></g>
<g><path style="opacity:0.686" fill="#545454" d="M 30.5,226.5 C 30.2766,230.162 29.2766,233.495 27.5,236.5C 27.7234,232.838 28.7234,229.505 30.5,226.5 Z"/></g>
<g><path style="opacity:0.431" fill="#595a56" d="M 27.5,236.5 C 27.8294,239.228 27.1628,241.562 25.5,243.5C 25.4095,240.848 26.0762,238.515 27.5,236.5 Z"/></g>
<g><path style="opacity:0.592" fill="#646263" d="M 25.5,243.5 C 25.2766,247.162 24.2766,250.495 22.5,253.5C 22.7234,249.838 23.7234,246.505 25.5,243.5 Z"/></g>
<g><path style="opacity:1" fill="#aa76b6" d="M 78.5,139.5 C 79.7507,155.831 79.7507,172.164 78.5,188.5C 76.7152,217.82 75.3819,247.32 74.5,277C 74.8333,282.167 75.1667,287.333 75.5,292.5C 76.7199,292.887 77.3865,293.72 77.5,295C 76.4267,296.416 76.4267,297.75 77.5,299C 86.1603,299.5 94.8269,299.666 103.5,299.5C 105.839,287.963 107.339,276.296 108,264.5C 108.97,261.556 109.804,258.556 110.5,255.5C 111.086,255.291 111.586,254.957 112,254.5C 116.394,237.075 120.06,219.409 123,201.5C 123.709,197.132 123.542,192.799 122.5,188.5C 125.637,184.556 127.971,180.223 129.5,175.5C 121.38,217.554 113.047,259.554 104.5,301.5C 100.5,301.5 96.5,301.5 92.5,301.5C 85.8333,301.5 79.1667,301.5 72.5,301.5C 72.5,296.833 72.5,292.167 72.5,287.5C 72.5325,271.492 72.8659,255.492 73.5,239.5C 75.1112,218.684 76.1112,197.684 76.5,176.5C 76.5,170.833 76.5,165.167 76.5,159.5C 77.1667,152.833 77.8333,146.167 78.5,139.5 Z"/></g>
<g><path style="opacity:0.631" fill="#7b7979" d="M 311.5,247.5 C 312.617,251.295 313.283,255.295 313.5,259.5C 311.75,255.817 311.083,251.817 311.5,247.5 Z"/></g>
<g><path style="opacity:1" fill="#6c3279" d="M 70.5,207.5 C 69.6248,237.505 68.6248,267.505 67.5,297.5C 66.1266,297.657 64.7932,297.49 63.5,297C 57.8333,291.333 52.1667,285.667 46.5,280C 44.2774,279.434 42.2774,278.6 40.5,277.5C 43.5219,277.804 46.5219,278.304 49.5,279C 53.5985,283.088 57.2652,287.421 60.5,292C 61.448,292.483 62.448,292.649 63.5,292.5C 64.6478,287.905 65.4811,283.238 66,278.5C 66.2229,265.468 66.7229,252.468 67.5,239.5C 68.2346,228.812 69.2346,218.145 70.5,207.5 Z"/></g>
<g><path style="opacity:1" fill="#5f306c" d="M 29.5,248.5 C 28.0834,256.175 26.75,263.842 25.5,271.5C 24.2749,270.848 23.6083,269.681 23.5,268C 24.4447,261.048 26.4447,254.548 29.5,248.5 Z"/></g>
<g><path style="opacity:0.722" fill="#68646b" d="M 19.5,264.5 C 19.0405,267.877 18.3739,271.211 17.5,274.5C 16.6531,270.994 17.3197,267.661 19.5,264.5 Z"/></g>
<g><path style="opacity:1" fill="#b07198" d="M 123.5,236.5 C 123.38,242.886 122.714,249.219 121.5,255.5C 123.065,261.085 123.565,266.752 123,272.5C 121.784,270.038 121.118,267.371 121,264.5C 118.813,270.058 116.813,275.725 115,281.5C 114.231,284.099 114.398,286.599 115.5,289C 112.301,293.654 111.135,298.821 112,304.5C 112.654,303.304 113.154,303.304 113.5,304.5C 112.477,306.895 113.477,307.895 116.5,307.5C 116.433,308.959 116.766,310.292 117.5,311.5C 111.598,311.76 108.598,309.093 108.5,303.5C 113.293,281.121 118.293,258.788 123.5,236.5 Z"/></g>
<g><path style="opacity:0.824" fill="#4f4e50" d="M 30.5,279.5 C 33.491,279.166 35.8243,280.166 37.5,282.5C 34.8427,282.065 32.5093,281.065 30.5,279.5 Z"/></g>
<g><path style="opacity:0.482" fill="#8e8d8d" d="M 316.5,279.5 C 317.617,283.295 318.283,287.295 318.5,291.5C 316.864,287.79 316.198,283.79 316.5,279.5 Z"/></g>
<g><path style="opacity:1" fill="#bd83a0" d="M 310.5,276.5 C 312.856,288.976 314.856,301.643 316.5,314.5C 315.5,314.5 314.5,314.5 313.5,314.5C 315.177,311.073 314.844,308.073 312.5,305.5C 311.889,295.829 311.222,286.162 310.5,276.5 Z"/></g>
<g><path style="opacity:1" fill="#d397b4" d="M 156.5,127.5 C 153.375,128.479 150.042,128.813 146.5,128.5C 146.5,164.5 146.5,200.5 146.5,236.5C 145.502,265.662 145.169,294.995 145.5,324.5C 158.815,323.667 172.149,323.334 185.5,323.5C 171.999,324.712 158.333,325.712 144.5,326.5C 144.43,260.497 144.763,194.497 145.5,128.5C 148.962,127.518 152.629,127.185 156.5,127.5 Z"/></g>
<g><path style="opacity:1" fill="#604365" d="M 72.5,287.5 C 72.5,292.167 72.5,296.833 72.5,301.5C 79.1667,301.5 85.8333,301.5 92.5,301.5C 85.6866,302.491 78.6866,302.825 71.5,302.5C 71.5,301.5 71.5,300.5 71.5,299.5C 71.1832,295.298 71.5166,291.298 72.5,287.5 Z"/></g>
<g><path style="opacity:1" fill="#844d6c" d="M 139.5,271.5 C 139.5,288.833 139.5,306.167 139.5,323.5C 138.833,324.833 138.167,324.833 137.5,323.5C 138.167,306.167 138.833,288.833 139.5,271.5 Z"/></g>
<g><path style="opacity:0.725" fill="#777777" d="M 320.5,306.5 C 322.349,310.423 322.682,314.423 321.5,318.5C 320.838,314.534 320.505,310.534 320.5,306.5 Z"/></g>
<g><path style="opacity:0.871" fill="#656561" d="M 109.5,314.5 C 113.358,314.77 116.691,316.103 119.5,318.5C 115.863,317.737 112.53,316.403 109.5,314.5 Z"/></g>
<g><path style="opacity:1" fill="#ed9cc4" d="M 146.5,236.5 C 146.199,265.525 146.532,294.525 147.5,323.5C 175.227,322.473 202.894,320.64 230.5,318C 234.666,315.616 239.333,315.116 244.5,316.5C 249.269,316.403 253.769,315.403 258,313.5C 262.281,313.926 266.781,314.26 271.5,314.5C 275.839,314.639 280.006,313.972 284,312.5C 293.772,313.601 303.605,313.601 313.5,312.5C 313.326,310.139 312.993,307.806 312.5,305.5C 314.844,308.073 315.177,311.073 313.5,314.5C 304.121,314.626 294.788,315.292 285.5,316.5C 272.637,316.889 259.97,317.889 247.5,319.5C 226.82,320.644 206.154,321.977 185.5,323.5C 172.149,323.334 158.815,323.667 145.5,324.5C 145.169,294.995 145.502,265.662 146.5,236.5 Z"/></g>
<g><path style="opacity:1" fill="#301621" d="M 285.5,316.5 C 273.073,318.689 260.406,319.689 247.5,319.5C 259.97,317.889 272.637,316.889 285.5,316.5 Z"/></g>
<g><path style="opacity:0.106" fill="#a7a7a7" d="M 313.5,319.5 C 306.683,320.565 299.683,321.232 292.5,321.5C 299.262,319.847 306.262,319.18 313.5,319.5 Z"/></g>
<g><path style="opacity:0.318" fill="#7a7676" d="M 126.5,322.5 C 128.027,322.427 129.027,323.094 129.5,324.5C 127.973,324.573 126.973,323.906 126.5,322.5 Z"/></g>
<g><path style="opacity:0.392" fill="#787c7a" d="M 129.5,324.5 C 131.404,324.738 132.738,325.738 133.5,327.5C 131.596,327.262 130.262,326.262 129.5,324.5 Z"/></g>
<g><path style="opacity:0.043" fill="#b0adae" d="M 245.5,324.5 C 237.709,325.921 229.709,326.587 221.5,326.5C 229.299,325.183 237.299,324.517 245.5,324.5 Z"/></g>
<g><path style="opacity:0.114" fill="#929290" d="M 221.5,326.5 C 211.694,327.82 201.694,328.487 191.5,328.5C 201.287,326.895 211.287,326.228 221.5,326.5 Z"/></g>
<g><path style="opacity:0.251" fill="#9c9e9a" d="M 133.5,327.5 C 135.027,327.427 136.027,328.094 136.5,329.5C 134.973,329.573 133.973,328.906 133.5,327.5 Z"/></g>
<g><path style="opacity:0.196" fill="#919093" d="M 136.5,329.5 C 138.027,329.427 139.027,330.094 139.5,331.5C 137.973,331.573 136.973,330.906 136.5,329.5 Z"/></g>
<g><path style="opacity:0.129" fill="#a1a0a1" d="M 166.5,330.5 C 157.532,332.299 148.532,332.632 139.5,331.5C 148.494,331.034 157.494,330.7 166.5,330.5 Z"/></g>
</svg>
